<mxfile host="app.diagrams.net" modified="2020-10-19T10:44:34.738Z" agent="5.0 (Macintosh; Intel Mac OS X 10_15_7) AppleWebKit/537.36 (KHTML, like Gecko) Chrome/86.0.4240.80 Safari/537.36" etag="F0mZpmieK1GF7eCW3gmM" version="13.8.0" type="github">
  <diagram id="R2lEEEUBdFMjLlhIrx00" name="Page-1">
    <mxGraphModel dx="1694" dy="1104" grid="1" gridSize="10" guides="1" tooltips="1" connect="1" arrows="1" fold="1" page="1" pageScale="1" pageWidth="1654" pageHeight="1169" math="0" shadow="0" extFonts="Permanent Marker^https://fonts.googleapis.com/css?family=Permanent+Marker">
      <root>
        <mxCell id="0" />
        <mxCell id="1" parent="0" />
        <mxCell id="n40eV8zk3N71hHBReMtP-1" value="&lt;meta charset=&quot;utf-8&quot;&gt;&lt;b style=&quot;font-weight: normal&quot; id=&quot;docs-internal-guid-354f3ef8-7fff-2816-3f01-19fa54746503&quot;&gt;&lt;p dir=&quot;ltr&quot; style=&quot;line-height: 1.38 ; margin-top: 0pt ; margin-bottom: 0pt&quot;&gt;&lt;span style=&quot;font-size: 13pt; font-family: lato, sans-serif; color: rgb(89, 89, 89); background-color: transparent; font-weight: 400; font-style: normal; font-variant: normal; text-decoration: none; vertical-align: baseline;&quot;&gt;Se desea disponer de una base de datos para gestionar las ventas que realiza una floristería a sus clientes.&lt;/span&gt;&lt;/p&gt;&lt;ul style=&quot;margin-top: 0 ; margin-bottom: 0&quot;&gt;&lt;li dir=&quot;ltr&quot; style=&quot;list-style-type: disc; font-size: 13pt; font-family: lato, sans-serif; color: rgb(89, 89, 89); background-color: transparent; font-weight: 400; font-style: normal; font-variant: normal; text-decoration: none; vertical-align: baseline;&quot;&gt;&lt;p dir=&quot;ltr&quot; style=&quot;line-height: 1.38 ; margin-top: 0pt ; margin-bottom: 0pt&quot;&gt;&lt;span style=&quot;font-size: 13pt; font-family: lato, sans-serif; color: rgb(89, 89, 89); background-color: transparent; font-weight: 400; font-style: normal; font-variant: normal; text-decoration: none; vertical-align: baseline;&quot;&gt;Se desea almacenar el repertorio de elementos que se utilizan como materia prima. De cada uno de esos elementos interesa saber su clave (dos caracteres), su nombre, su color y su precio unitario. Puede haber dos elementos con el mismo nombre pero diferente color; p.e. una rosa roja y una rosa blanca tendrán el mismo nombre (&quot;rosa&quot;), pero serán dos elementos diferentes y tendrán claves diferentes.&lt;/span&gt;&lt;/p&gt;&lt;/li&gt;&lt;li dir=&quot;ltr&quot; style=&quot;list-style-type: disc; font-size: 13pt; font-family: lato, sans-serif; color: rgb(89, 89, 89); background-color: transparent; font-weight: 400; font-style: normal; font-variant: normal; text-decoration: none; vertical-align: baseline;&quot;&gt;&lt;p dir=&quot;ltr&quot; style=&quot;line-height: 1.38 ; margin-top: 0pt ; margin-bottom: 0pt&quot;&gt;&lt;span style=&quot;font-size: 13pt; font-family: lato, sans-serif; color: rgb(89, 89, 89); background-color: transparent; font-weight: 400; font-style: normal; font-variant: normal; text-decoration: none; vertical-align: baseline;&quot;&gt;De los clientes interesa saber el NIF, el nombre y el teléfono&lt;/span&gt;&lt;/p&gt;&lt;/li&gt;&lt;li dir=&quot;ltr&quot; style=&quot;list-style-type: disc; font-size: 13pt; font-family: lato, sans-serif; color: rgb(89, 89, 89); background-color: transparent; font-weight: 400; font-style: normal; font-variant: normal; text-decoration: none; vertical-align: baseline;&quot;&gt;&lt;p dir=&quot;ltr&quot; style=&quot;line-height: 1.38 ; margin-top: 0pt ; margin-bottom: 0pt&quot;&gt;&lt;span style=&quot;font-size: 13pt; font-family: lato, sans-serif; color: rgb(89, 89, 89); background-color: transparent; font-weight: 400; font-style: normal; font-variant: normal; text-decoration: none; vertical-align: baseline;&quot;&gt;La floristería realiza las entregas mediante una serie de empresas de mensajería. Por cada entrega la floristería paga a la empresa de mensajería correspondiente un porcentaje del precio de esa venta (una entrega la realiza una sola empresa de mensajería). De cada empresa de mensajería interesa el NIF, el nombre y el porcentaje que se le paga, que es fijo para cada empresa pero puede variar de una empresa a otra.&lt;/span&gt;&lt;/p&gt;&lt;/li&gt;&lt;/ul&gt;&lt;br&gt;&lt;/b&gt;" style="text;whiteSpace=wrap;html=1;" vertex="1" parent="1">
          <mxGeometry x="80" y="210" width="550" height="440" as="geometry" />
        </mxCell>
        <mxCell id="n40eV8zk3N71hHBReMtP-2" value="&lt;meta charset=&quot;utf-8&quot;&gt;&lt;b style=&quot;font-weight: normal&quot; id=&quot;docs-internal-guid-dc8167a7-7fff-5f1d-3189-710af9ad38a2&quot;&gt;&lt;ul style=&quot;margin-top: 0 ; margin-bottom: 0&quot;&gt;&lt;li dir=&quot;ltr&quot; style=&quot;list-style-type: disc; font-size: 13pt; font-family: lato, sans-serif; color: rgb(89, 89, 89); background-color: transparent; font-weight: 400; font-style: normal; font-variant: normal; text-decoration: none; vertical-align: baseline;&quot;&gt;&lt;p dir=&quot;ltr&quot; style=&quot;line-height: 1.38 ; margin-top: 0pt ; margin-bottom: 0pt&quot;&gt;&lt;span style=&quot;font-size: 13pt; font-family: lato, sans-serif; color: rgb(89, 89, 89); background-color: transparent; font-weight: 400; font-style: normal; font-variant: normal; text-decoration: none; vertical-align: baseline;&quot;&gt;De cada venta realizada interesa saber:&lt;/span&gt;&lt;/p&gt;&lt;/li&gt;&lt;ul style=&quot;margin-top: 0 ; margin-bottom: 0&quot;&gt;&lt;li dir=&quot;ltr&quot; style=&quot;list-style-type: circle; font-size: 11pt; font-family: lato, sans-serif; color: rgb(89, 89, 89); background-color: transparent; font-weight: 400; font-style: normal; font-variant: normal; text-decoration: none; vertical-align: baseline;&quot;&gt;&lt;p dir=&quot;ltr&quot; style=&quot;line-height: 1.38 ; margin-top: 0pt ; margin-bottom: 0pt&quot;&gt;&lt;span style=&quot;font-size: 11pt; font-family: lato, sans-serif; color: rgb(89, 89, 89); background-color: transparent; font-weight: 400; font-style: normal; font-variant: normal; text-decoration: none; vertical-align: baseline;&quot;&gt;La fecha en la que se ha realizado&lt;/span&gt;&lt;/p&gt;&lt;/li&gt;&lt;li dir=&quot;ltr&quot; style=&quot;list-style-type: circle; font-size: 11pt; font-family: lato, sans-serif; color: rgb(89, 89, 89); background-color: transparent; font-weight: 400; font-style: normal; font-variant: normal; text-decoration: none; vertical-align: baseline;&quot;&gt;&lt;p dir=&quot;ltr&quot; style=&quot;line-height: 1.38 ; margin-top: 0pt ; margin-bottom: 0pt&quot;&gt;&lt;span style=&quot;font-size: 11pt; font-family: lato, sans-serif; color: rgb(89, 89, 89); background-color: transparent; font-weight: 400; font-style: normal; font-variant: normal; text-decoration: none; vertical-align: baseline;&quot;&gt;Qué elementos se han utilizado, su precio unitario y el nº de unidades que se ha usado de cada uno&lt;/span&gt;&lt;/p&gt;&lt;/li&gt;&lt;li dir=&quot;ltr&quot; style=&quot;list-style-type: circle; font-size: 11pt; font-family: lato, sans-serif; color: rgb(89, 89, 89); background-color: transparent; font-weight: 400; font-style: normal; font-variant: normal; text-decoration: none; vertical-align: baseline;&quot;&gt;&lt;p dir=&quot;ltr&quot; style=&quot;line-height: 1.38 ; margin-top: 0pt ; margin-bottom: 0pt&quot;&gt;&lt;span style=&quot;font-size: 11pt; font-family: lato, sans-serif; color: rgb(89, 89, 89); background-color: transparent; font-weight: 400; font-style: normal; font-variant: normal; text-decoration: none; vertical-align: baseline;&quot;&gt;A qué cliente se le ha realizado la venta&lt;/span&gt;&lt;/p&gt;&lt;/li&gt;&lt;li dir=&quot;ltr&quot; style=&quot;list-style-type: circle; font-size: 11pt; font-family: lato, sans-serif; color: rgb(89, 89, 89); background-color: transparent; font-weight: 400; font-style: normal; font-variant: normal; text-decoration: none; vertical-align: baseline;&quot;&gt;&lt;p dir=&quot;ltr&quot; style=&quot;line-height: 1.38 ; margin-top: 0pt ; margin-bottom: 0pt&quot;&gt;&lt;span style=&quot;font-size: 11pt; font-family: lato, sans-serif; color: rgb(89, 89, 89); background-color: transparent; font-weight: 400; font-style: normal; font-variant: normal; text-decoration: none; vertical-align: baseline;&quot;&gt;La dirección en la que se ha hecho la entrega (las entregas no se hacen nunca &quot;en mano&quot; en la tienda)&lt;/span&gt;&lt;/p&gt;&lt;/li&gt;&lt;li dir=&quot;ltr&quot; style=&quot;list-style-type: circle; font-size: 11pt; font-family: lato, sans-serif; color: rgb(89, 89, 89); background-color: transparent; font-weight: 400; font-style: normal; font-variant: normal; text-decoration: none; vertical-align: baseline;&quot;&gt;&lt;p dir=&quot;ltr&quot; style=&quot;line-height: 1.38 ; margin-top: 0pt ; margin-bottom: 0pt&quot;&gt;&lt;span style=&quot;font-size: 11pt; font-family: lato, sans-serif; color: rgb(89, 89, 89); background-color: transparent; font-weight: 400; font-style: normal; font-variant: normal; text-decoration: none; vertical-align: baseline;&quot;&gt;A las operaciones de venta realizadas en un mismo día se las distingue unas de otras mediante un &quot;nº de venta&quot;; habrá operaciones realizadas en diferentes días que tengan el mismo &quot;nº de venta&quot;&lt;/span&gt;&lt;/p&gt;&lt;/li&gt;&lt;/ul&gt;&lt;li dir=&quot;ltr&quot; style=&quot;list-style-type: disc; font-size: 13pt; font-family: lato, sans-serif; color: rgb(89, 89, 89); background-color: transparent; font-weight: 400; font-style: normal; font-variant: normal; text-decoration: none; vertical-align: baseline;&quot;&gt;&lt;p dir=&quot;ltr&quot; style=&quot;line-height: 1.38 ; margin-top: 0pt ; margin-bottom: 0pt&quot;&gt;&lt;span style=&quot;font-size: 13pt; font-family: lato, sans-serif; color: rgb(89, 89, 89); background-color: transparent; font-weight: 400; font-style: normal; font-variant: normal; text-decoration: none; vertical-align: baseline;&quot;&gt;Para simplificar el problema se puede suponer que:&lt;/span&gt;&lt;/p&gt;&lt;/li&gt;&lt;ul style=&quot;margin-top: 0 ; margin-bottom: 0&quot;&gt;&lt;li dir=&quot;ltr&quot; style=&quot;list-style-type: circle; font-size: 11pt; font-family: lato, sans-serif; color: rgb(89, 89, 89); background-color: transparent; font-weight: 400; font-style: normal; font-variant: normal; text-decoration: none; vertical-align: baseline;&quot;&gt;&lt;p dir=&quot;ltr&quot; style=&quot;line-height: 1.38 ; margin-top: 0pt ; margin-bottom: 0pt&quot;&gt;&lt;span style=&quot;font-size: 11pt; font-family: lato, sans-serif; color: rgb(89, 89, 89); background-color: transparent; font-weight: 400; font-style: normal; font-variant: normal; text-decoration: none; vertical-align: baseline;&quot;&gt;El precio unitario de un mismo elemento no varía nunca&lt;/span&gt;&lt;/p&gt;&lt;/li&gt;&lt;li dir=&quot;ltr&quot; style=&quot;list-style-type: circle; font-size: 11pt; font-family: lato, sans-serif; color: rgb(89, 89, 89); background-color: transparent; font-weight: 400; font-style: normal; font-variant: normal; text-decoration: none; vertical-align: baseline;&quot;&gt;&lt;p dir=&quot;ltr&quot; style=&quot;line-height: 1.38 ; margin-top: 0pt ; margin-bottom: 0pt&quot;&gt;&lt;span style=&quot;font-size: 11pt; font-family: lato, sans-serif; color: rgb(89, 89, 89); background-color: transparent; font-weight: 400; font-style: normal; font-variant: normal; text-decoration: none; vertical-align: baseline;&quot;&gt;El porcentaje que se paga a cada empresa de mensajería no varía nunca&lt;/span&gt;&lt;/p&gt;&lt;/li&gt;&lt;/ul&gt;&lt;/ul&gt;&lt;/b&gt;" style="text;whiteSpace=wrap;html=1;" vertex="1" parent="1">
          <mxGeometry x="80" y="610" width="550" height="320" as="geometry" />
        </mxCell>
        <mxCell id="n40eV8zk3N71hHBReMtP-65" style="edgeStyle=orthogonalEdgeStyle;rounded=0;orthogonalLoop=1;jettySize=auto;html=1;entryX=1;entryY=0.5;entryDx=0;entryDy=0;endArrow=none;endFill=0;" edge="1" parent="1" source="n40eV8zk3N71hHBReMtP-3" target="n40eV8zk3N71hHBReMtP-5">
          <mxGeometry relative="1" as="geometry" />
        </mxCell>
        <mxCell id="n40eV8zk3N71hHBReMtP-3" value="Elemento" style="whiteSpace=wrap;html=1;align=center;" vertex="1" parent="1">
          <mxGeometry x="910" y="400" width="100" height="40" as="geometry" />
        </mxCell>
        <mxCell id="n40eV8zk3N71hHBReMtP-50" style="edgeStyle=orthogonalEdgeStyle;rounded=0;orthogonalLoop=1;jettySize=auto;html=1;entryX=0;entryY=0.5;entryDx=0;entryDy=0;endArrow=none;endFill=0;" edge="1" parent="1" source="n40eV8zk3N71hHBReMtP-4" target="n40eV8zk3N71hHBReMtP-3">
          <mxGeometry relative="1" as="geometry" />
        </mxCell>
        <mxCell id="n40eV8zk3N71hHBReMtP-4" value="Clave" style="ellipse;whiteSpace=wrap;html=1;align=center;fontStyle=4;" vertex="1" parent="1">
          <mxGeometry x="730" y="310" width="100" height="40" as="geometry" />
        </mxCell>
        <mxCell id="n40eV8zk3N71hHBReMtP-5" value="Color" style="ellipse;whiteSpace=wrap;html=1;align=center;" vertex="1" parent="1">
          <mxGeometry x="730" y="520" width="100" height="40" as="geometry" />
        </mxCell>
        <mxCell id="n40eV8zk3N71hHBReMtP-51" style="edgeStyle=orthogonalEdgeStyle;rounded=0;orthogonalLoop=1;jettySize=auto;html=1;endArrow=none;endFill=0;entryX=0;entryY=0.5;entryDx=0;entryDy=0;" edge="1" parent="1" source="n40eV8zk3N71hHBReMtP-6" target="n40eV8zk3N71hHBReMtP-3">
          <mxGeometry relative="1" as="geometry">
            <mxPoint x="900" y="420" as="targetPoint" />
          </mxGeometry>
        </mxCell>
        <mxCell id="n40eV8zk3N71hHBReMtP-6" value="Nombre" style="ellipse;whiteSpace=wrap;html=1;align=center;" vertex="1" parent="1">
          <mxGeometry x="730" y="380" width="100" height="40" as="geometry" />
        </mxCell>
        <mxCell id="n40eV8zk3N71hHBReMtP-52" style="edgeStyle=orthogonalEdgeStyle;rounded=0;orthogonalLoop=1;jettySize=auto;html=1;endArrow=none;endFill=0;exitX=1;exitY=0.5;exitDx=0;exitDy=0;entryX=0;entryY=0.5;entryDx=0;entryDy=0;" edge="1" parent="1" source="n40eV8zk3N71hHBReMtP-7" target="n40eV8zk3N71hHBReMtP-3">
          <mxGeometry relative="1" as="geometry">
            <mxPoint x="900" y="420" as="targetPoint" />
            <Array as="points">
              <mxPoint x="870" y="470" />
              <mxPoint x="870" y="420" />
              <mxPoint x="910" y="420" />
            </Array>
          </mxGeometry>
        </mxCell>
        <mxCell id="n40eV8zk3N71hHBReMtP-7" value="Precio" style="ellipse;whiteSpace=wrap;html=1;align=center;" vertex="1" parent="1">
          <mxGeometry x="730" y="450" width="100" height="40" as="geometry" />
        </mxCell>
        <mxCell id="n40eV8zk3N71hHBReMtP-61" style="edgeStyle=orthogonalEdgeStyle;rounded=0;orthogonalLoop=1;jettySize=auto;html=1;entryX=0;entryY=0.5;entryDx=0;entryDy=0;endArrow=none;endFill=0;" edge="1" parent="1" source="n40eV8zk3N71hHBReMtP-8" target="n40eV8zk3N71hHBReMtP-9">
          <mxGeometry relative="1" as="geometry" />
        </mxCell>
        <mxCell id="n40eV8zk3N71hHBReMtP-62" style="edgeStyle=orthogonalEdgeStyle;rounded=0;orthogonalLoop=1;jettySize=auto;html=1;entryX=0;entryY=0.5;entryDx=0;entryDy=0;endArrow=none;endFill=0;" edge="1" parent="1" source="n40eV8zk3N71hHBReMtP-8" target="n40eV8zk3N71hHBReMtP-11">
          <mxGeometry relative="1" as="geometry" />
        </mxCell>
        <mxCell id="n40eV8zk3N71hHBReMtP-63" style="edgeStyle=orthogonalEdgeStyle;rounded=0;orthogonalLoop=1;jettySize=auto;html=1;entryX=0;entryY=0.5;entryDx=0;entryDy=0;endArrow=none;endFill=0;" edge="1" parent="1" source="n40eV8zk3N71hHBReMtP-8" target="n40eV8zk3N71hHBReMtP-12">
          <mxGeometry relative="1" as="geometry" />
        </mxCell>
        <mxCell id="n40eV8zk3N71hHBReMtP-64" style="edgeStyle=orthogonalEdgeStyle;rounded=0;orthogonalLoop=1;jettySize=auto;html=1;entryX=0;entryY=0.5;entryDx=0;entryDy=0;endArrow=none;endFill=0;" edge="1" parent="1" source="n40eV8zk3N71hHBReMtP-8" target="n40eV8zk3N71hHBReMtP-13">
          <mxGeometry relative="1" as="geometry" />
        </mxCell>
        <mxCell id="n40eV8zk3N71hHBReMtP-8" value="Cliente" style="whiteSpace=wrap;html=1;align=center;" vertex="1" parent="1">
          <mxGeometry x="1280" y="400" width="100" height="40" as="geometry" />
        </mxCell>
        <mxCell id="n40eV8zk3N71hHBReMtP-9" value="NIF" style="ellipse;whiteSpace=wrap;html=1;align=center;fontStyle=4;" vertex="1" parent="1">
          <mxGeometry x="1450" y="310" width="100" height="40" as="geometry" />
        </mxCell>
        <mxCell id="n40eV8zk3N71hHBReMtP-11" value="Nombre" style="ellipse;whiteSpace=wrap;html=1;align=center;" vertex="1" parent="1">
          <mxGeometry x="1450" y="380" width="100" height="40" as="geometry" />
        </mxCell>
        <mxCell id="n40eV8zk3N71hHBReMtP-12" value="Teléfono" style="ellipse;whiteSpace=wrap;html=1;align=center;" vertex="1" parent="1">
          <mxGeometry x="1450" y="450" width="100" height="40" as="geometry" />
        </mxCell>
        <mxCell id="n40eV8zk3N71hHBReMtP-13" value="Dirección" style="ellipse;whiteSpace=wrap;html=1;align=center;fillColor=#ffe6cc;strokeColor=#d79b00;" vertex="1" parent="1">
          <mxGeometry x="1450" y="520" width="100" height="40" as="geometry" />
        </mxCell>
        <mxCell id="n40eV8zk3N71hHBReMtP-46" style="edgeStyle=orthogonalEdgeStyle;rounded=0;orthogonalLoop=1;jettySize=auto;html=1;entryX=0.5;entryY=0;entryDx=0;entryDy=0;endArrow=none;endFill=0;" edge="1" parent="1" source="n40eV8zk3N71hHBReMtP-14" target="n40eV8zk3N71hHBReMtP-45">
          <mxGeometry relative="1" as="geometry" />
        </mxCell>
        <mxCell id="n40eV8zk3N71hHBReMtP-49" value="N" style="edgeLabel;html=1;align=center;verticalAlign=middle;resizable=0;points=[];" vertex="1" connectable="0" parent="n40eV8zk3N71hHBReMtP-46">
          <mxGeometry x="-0.6833" relative="1" as="geometry">
            <mxPoint as="offset" />
          </mxGeometry>
        </mxCell>
        <mxCell id="n40eV8zk3N71hHBReMtP-58" style="edgeStyle=orthogonalEdgeStyle;rounded=0;orthogonalLoop=1;jettySize=auto;html=1;entryX=0;entryY=0.5;entryDx=0;entryDy=0;endArrow=none;endFill=0;" edge="1" parent="1" source="n40eV8zk3N71hHBReMtP-14" target="n40eV8zk3N71hHBReMtP-31">
          <mxGeometry relative="1" as="geometry" />
        </mxCell>
        <mxCell id="n40eV8zk3N71hHBReMtP-59" style="edgeStyle=orthogonalEdgeStyle;rounded=0;orthogonalLoop=1;jettySize=auto;html=1;entryX=0;entryY=0.5;entryDx=0;entryDy=0;endArrow=none;endFill=0;" edge="1" parent="1" source="n40eV8zk3N71hHBReMtP-14" target="n40eV8zk3N71hHBReMtP-30">
          <mxGeometry relative="1" as="geometry" />
        </mxCell>
        <mxCell id="n40eV8zk3N71hHBReMtP-60" style="edgeStyle=orthogonalEdgeStyle;rounded=0;orthogonalLoop=1;jettySize=auto;html=1;entryX=0;entryY=0.5;entryDx=0;entryDy=0;endArrow=none;endFill=0;" edge="1" parent="1" source="n40eV8zk3N71hHBReMtP-14" target="n40eV8zk3N71hHBReMtP-27">
          <mxGeometry relative="1" as="geometry" />
        </mxCell>
        <mxCell id="n40eV8zk3N71hHBReMtP-14" value="Venta" style="whiteSpace=wrap;html=1;align=center;" vertex="1" parent="1">
          <mxGeometry x="1280" y="610" width="100" height="40" as="geometry" />
        </mxCell>
        <mxCell id="n40eV8zk3N71hHBReMtP-16" value="Línea de venta" style="shape=ext;margin=3;double=1;whiteSpace=wrap;html=1;align=center;" vertex="1" parent="1">
          <mxGeometry x="910" y="610" width="100" height="40" as="geometry" />
        </mxCell>
        <mxCell id="n40eV8zk3N71hHBReMtP-17" value="Mensajero" style="whiteSpace=wrap;html=1;align=center;" vertex="1" parent="1">
          <mxGeometry x="1280" y="800" width="100" height="40" as="geometry" />
        </mxCell>
        <mxCell id="n40eV8zk3N71hHBReMtP-18" value="Consideramos que una venta se reparte en una sola entrega, aunque ¡podrían ser varias!" style="shape=note;size=20;whiteSpace=wrap;html=1;" vertex="1" parent="1">
          <mxGeometry x="956" y="750" width="170" height="100" as="geometry" />
        </mxCell>
        <mxCell id="n40eV8zk3N71hHBReMtP-20" style="edgeStyle=orthogonalEdgeStyle;rounded=0;orthogonalLoop=1;jettySize=auto;html=1;entryX=0.5;entryY=1;entryDx=0;entryDy=0;endArrow=none;endFill=0;" edge="1" parent="1" source="n40eV8zk3N71hHBReMtP-19" target="n40eV8zk3N71hHBReMtP-3">
          <mxGeometry relative="1" as="geometry" />
        </mxCell>
        <mxCell id="n40eV8zk3N71hHBReMtP-23" value="1" style="edgeLabel;html=1;align=center;verticalAlign=middle;resizable=0;points=[];" vertex="1" connectable="0" parent="n40eV8zk3N71hHBReMtP-20">
          <mxGeometry x="0.56" y="-1" relative="1" as="geometry">
            <mxPoint as="offset" />
          </mxGeometry>
        </mxCell>
        <mxCell id="n40eV8zk3N71hHBReMtP-21" style="edgeStyle=orthogonalEdgeStyle;rounded=0;orthogonalLoop=1;jettySize=auto;html=1;entryX=0.5;entryY=0;entryDx=0;entryDy=0;endArrow=none;endFill=0;" edge="1" parent="1" source="n40eV8zk3N71hHBReMtP-19" target="n40eV8zk3N71hHBReMtP-16">
          <mxGeometry relative="1" as="geometry" />
        </mxCell>
        <mxCell id="n40eV8zk3N71hHBReMtP-24" value="N" style="edgeLabel;html=1;align=center;verticalAlign=middle;resizable=0;points=[];" vertex="1" connectable="0" parent="n40eV8zk3N71hHBReMtP-21">
          <mxGeometry x="0.5533" relative="1" as="geometry">
            <mxPoint as="offset" />
          </mxGeometry>
        </mxCell>
        <mxCell id="n40eV8zk3N71hHBReMtP-19" value="Referencia a" style="shape=rhombus;perimeter=rhombusPerimeter;whiteSpace=wrap;html=1;align=center;" vertex="1" parent="1">
          <mxGeometry x="900" y="490" width="120" height="60" as="geometry" />
        </mxCell>
        <mxCell id="n40eV8zk3N71hHBReMtP-22" value="Este es el patrón Cabecera - Posición que hemos visto en clase (está en las presentaciones): Venta es la cabecera y Línea de venta la posición (o ítem)." style="shape=note;size=20;whiteSpace=wrap;html=1;" vertex="1" parent="1">
          <mxGeometry x="1040" y="470" width="220" height="110" as="geometry" />
        </mxCell>
        <mxCell id="n40eV8zk3N71hHBReMtP-53" style="edgeStyle=orthogonalEdgeStyle;rounded=0;orthogonalLoop=1;jettySize=auto;html=1;entryX=0.5;entryY=1;entryDx=0;entryDy=0;endArrow=none;endFill=0;" edge="1" parent="1" source="n40eV8zk3N71hHBReMtP-25" target="n40eV8zk3N71hHBReMtP-16">
          <mxGeometry relative="1" as="geometry" />
        </mxCell>
        <mxCell id="n40eV8zk3N71hHBReMtP-25" value="&lt;span style=&quot;border-bottom: 1px dotted&quot;&gt;Número&lt;/span&gt;" style="ellipse;whiteSpace=wrap;html=1;align=center;" vertex="1" parent="1">
          <mxGeometry x="856" y="680" width="100" height="40" as="geometry" />
        </mxCell>
        <mxCell id="n40eV8zk3N71hHBReMtP-54" style="edgeStyle=orthogonalEdgeStyle;rounded=0;orthogonalLoop=1;jettySize=auto;html=1;endArrow=none;endFill=0;" edge="1" parent="1" source="n40eV8zk3N71hHBReMtP-26">
          <mxGeometry relative="1" as="geometry">
            <mxPoint x="960" y="650" as="targetPoint" />
          </mxGeometry>
        </mxCell>
        <mxCell id="n40eV8zk3N71hHBReMtP-26" value="Cantidad" style="ellipse;whiteSpace=wrap;html=1;align=center;" vertex="1" parent="1">
          <mxGeometry x="960" y="680" width="100" height="40" as="geometry" />
        </mxCell>
        <mxCell id="n40eV8zk3N71hHBReMtP-27" value="Dirección" style="ellipse;whiteSpace=wrap;html=1;align=center;" vertex="1" parent="1">
          <mxGeometry x="1450" y="710" width="100" height="40" as="geometry" />
        </mxCell>
        <mxCell id="n40eV8zk3N71hHBReMtP-30" value="Fecha" style="ellipse;whiteSpace=wrap;html=1;align=center;fontStyle=4;" vertex="1" parent="1">
          <mxGeometry x="1450" y="650" width="100" height="40" as="geometry" />
        </mxCell>
        <mxCell id="n40eV8zk3N71hHBReMtP-31" value="Número" style="ellipse;whiteSpace=wrap;html=1;align=center;fontStyle=4;" vertex="1" parent="1">
          <mxGeometry x="1450" y="590" width="100" height="40" as="geometry" />
        </mxCell>
        <mxCell id="n40eV8zk3N71hHBReMtP-55" style="edgeStyle=orthogonalEdgeStyle;rounded=0;orthogonalLoop=1;jettySize=auto;html=1;entryX=0;entryY=0.5;entryDx=0;entryDy=0;endArrow=none;endFill=0;" edge="1" parent="1" source="n40eV8zk3N71hHBReMtP-32" target="n40eV8zk3N71hHBReMtP-17">
          <mxGeometry relative="1" as="geometry" />
        </mxCell>
        <mxCell id="n40eV8zk3N71hHBReMtP-32" value="NIF" style="ellipse;whiteSpace=wrap;html=1;align=center;fontStyle=4;" vertex="1" parent="1">
          <mxGeometry x="1140" y="740" width="100" height="40" as="geometry" />
        </mxCell>
        <mxCell id="n40eV8zk3N71hHBReMtP-56" style="edgeStyle=orthogonalEdgeStyle;rounded=0;orthogonalLoop=1;jettySize=auto;html=1;endArrow=none;endFill=0;" edge="1" parent="1" source="n40eV8zk3N71hHBReMtP-33" target="n40eV8zk3N71hHBReMtP-17">
          <mxGeometry relative="1" as="geometry" />
        </mxCell>
        <mxCell id="n40eV8zk3N71hHBReMtP-33" value="Nombre" style="ellipse;whiteSpace=wrap;html=1;align=center;" vertex="1" parent="1">
          <mxGeometry x="1140" y="800" width="100" height="40" as="geometry" />
        </mxCell>
        <mxCell id="n40eV8zk3N71hHBReMtP-57" style="edgeStyle=orthogonalEdgeStyle;rounded=0;orthogonalLoop=1;jettySize=auto;html=1;entryX=0;entryY=0.5;entryDx=0;entryDy=0;endArrow=none;endFill=0;" edge="1" parent="1" source="n40eV8zk3N71hHBReMtP-34" target="n40eV8zk3N71hHBReMtP-17">
          <mxGeometry relative="1" as="geometry" />
        </mxCell>
        <mxCell id="n40eV8zk3N71hHBReMtP-34" value="Porcentaje" style="ellipse;whiteSpace=wrap;html=1;align=center;" vertex="1" parent="1">
          <mxGeometry x="1140" y="860" width="100" height="40" as="geometry" />
        </mxCell>
        <mxCell id="n40eV8zk3N71hHBReMtP-36" style="edgeStyle=orthogonalEdgeStyle;rounded=0;orthogonalLoop=1;jettySize=auto;html=1;entryX=1;entryY=0.5;entryDx=0;entryDy=0;endArrow=none;endFill=0;" edge="1" parent="1" source="n40eV8zk3N71hHBReMtP-35" target="n40eV8zk3N71hHBReMtP-16">
          <mxGeometry relative="1" as="geometry" />
        </mxCell>
        <mxCell id="n40eV8zk3N71hHBReMtP-38" value="N" style="edgeLabel;html=1;align=center;verticalAlign=middle;resizable=0;points=[];" vertex="1" connectable="0" parent="n40eV8zk3N71hHBReMtP-36">
          <mxGeometry x="0.7111" y="2" relative="1" as="geometry">
            <mxPoint as="offset" />
          </mxGeometry>
        </mxCell>
        <mxCell id="n40eV8zk3N71hHBReMtP-37" style="edgeStyle=orthogonalEdgeStyle;rounded=0;orthogonalLoop=1;jettySize=auto;html=1;entryX=0;entryY=0.5;entryDx=0;entryDy=0;endArrow=none;endFill=0;" edge="1" parent="1" source="n40eV8zk3N71hHBReMtP-35" target="n40eV8zk3N71hHBReMtP-14">
          <mxGeometry relative="1" as="geometry" />
        </mxCell>
        <mxCell id="n40eV8zk3N71hHBReMtP-39" value="1" style="edgeLabel;html=1;align=center;verticalAlign=middle;resizable=0;points=[];" vertex="1" connectable="0" parent="n40eV8zk3N71hHBReMtP-37">
          <mxGeometry x="0.6857" y="-1" relative="1" as="geometry">
            <mxPoint as="offset" />
          </mxGeometry>
        </mxCell>
        <mxCell id="n40eV8zk3N71hHBReMtP-35" value="Contiene" style="shape=rhombus;double=1;perimeter=rhombusPerimeter;whiteSpace=wrap;html=1;align=center;" vertex="1" parent="1">
          <mxGeometry x="1090" y="600" width="120" height="60" as="geometry" />
        </mxCell>
        <mxCell id="n40eV8zk3N71hHBReMtP-41" style="edgeStyle=orthogonalEdgeStyle;rounded=0;orthogonalLoop=1;jettySize=auto;html=1;entryX=0.5;entryY=0;entryDx=0;entryDy=0;endArrow=none;endFill=0;" edge="1" parent="1" source="n40eV8zk3N71hHBReMtP-40" target="n40eV8zk3N71hHBReMtP-14">
          <mxGeometry relative="1" as="geometry" />
        </mxCell>
        <mxCell id="n40eV8zk3N71hHBReMtP-44" value="N" style="edgeLabel;html=1;align=center;verticalAlign=middle;resizable=0;points=[];" vertex="1" connectable="0" parent="n40eV8zk3N71hHBReMtP-41">
          <mxGeometry x="0.6667" y="1" relative="1" as="geometry">
            <mxPoint as="offset" />
          </mxGeometry>
        </mxCell>
        <mxCell id="n40eV8zk3N71hHBReMtP-42" style="edgeStyle=orthogonalEdgeStyle;rounded=0;orthogonalLoop=1;jettySize=auto;html=1;entryX=0.5;entryY=1;entryDx=0;entryDy=0;endArrow=none;endFill=0;" edge="1" parent="1" source="n40eV8zk3N71hHBReMtP-40" target="n40eV8zk3N71hHBReMtP-8">
          <mxGeometry relative="1" as="geometry" />
        </mxCell>
        <mxCell id="n40eV8zk3N71hHBReMtP-43" value="1" style="edgeLabel;html=1;align=center;verticalAlign=middle;resizable=0;points=[];" vertex="1" connectable="0" parent="n40eV8zk3N71hHBReMtP-42">
          <mxGeometry x="0.6" y="1" relative="1" as="geometry">
            <mxPoint as="offset" />
          </mxGeometry>
        </mxCell>
        <mxCell id="n40eV8zk3N71hHBReMtP-40" value="Vendido a" style="shape=rhombus;perimeter=rhombusPerimeter;whiteSpace=wrap;html=1;align=center;" vertex="1" parent="1">
          <mxGeometry x="1270" y="490" width="120" height="60" as="geometry" />
        </mxCell>
        <mxCell id="n40eV8zk3N71hHBReMtP-47" style="edgeStyle=orthogonalEdgeStyle;rounded=0;orthogonalLoop=1;jettySize=auto;html=1;entryX=0.5;entryY=0;entryDx=0;entryDy=0;endArrow=none;endFill=0;" edge="1" parent="1" source="n40eV8zk3N71hHBReMtP-45" target="n40eV8zk3N71hHBReMtP-17">
          <mxGeometry relative="1" as="geometry" />
        </mxCell>
        <mxCell id="n40eV8zk3N71hHBReMtP-48" value="1" style="edgeLabel;html=1;align=center;verticalAlign=middle;resizable=0;points=[];" vertex="1" connectable="0" parent="n40eV8zk3N71hHBReMtP-47">
          <mxGeometry x="0.8024" relative="1" as="geometry">
            <mxPoint y="-5.1" as="offset" />
          </mxGeometry>
        </mxCell>
        <mxCell id="n40eV8zk3N71hHBReMtP-45" value="Repartida por" style="shape=rhombus;perimeter=rhombusPerimeter;whiteSpace=wrap;html=1;align=center;" vertex="1" parent="1">
          <mxGeometry x="1270" y="690" width="120" height="60" as="geometry" />
        </mxCell>
      </root>
    </mxGraphModel>
  </diagram>
</mxfile>
